<?xml version="1.0" encoding="UTF-8"?>
<svg version="1.1" xmlns="http://www.w3.org/2000/svg" width="512" height="512">
<path d="M0 0 C6.0307615 3.5293661 10.31985203 8.42294056 12.5625 15.08203125 C12.8984375 17.6953125 12.8984375 17.6953125 12.9375 20.39453125 C12.96585938 21.27753906 12.99421875 22.16054687 13.0234375 23.0703125 C11.53990887 32.76353771 4.37794759 38.81460616 -2.26464844 45.36328125 C-3.37938455 46.47688762 -4.49323774 47.5913784 -5.60627747 48.7066803 C-8.61565121 51.71719716 -11.63715781 54.71525945 -14.66106319 57.7111702 C-17.82461983 60.84964609 -20.97678026 63.99952635 -24.13018799 67.14819336 C-30.09673594 73.10233114 -36.07340264 79.04620267 -42.0538094 84.98641682 C-48.86459008 91.75241884 -55.66395575 98.52984308 -62.46240568 105.30823135 C-76.44147579 119.24554151 -90.43475661 133.16850835 -104.4375 147.08203125 C-103.64569261 147.08262834 -102.85388522 147.08322543 -102.03808367 147.08384061 C-55.10788774 147.11973547 -8.17775615 147.17637587 38.75238033 147.2599522 C44.38749158 147.26996964 50.02260311 147.27981378 55.65771484 147.28955078 C57.34048692 147.29246284 57.34048692 147.29246284 59.05725439 147.29543373 C77.22143512 147.3264538 95.38560322 147.34343441 113.54980545 147.35522547 C132.18831432 147.36763698 150.82675689 147.39513842 169.46522391 147.43664432 C180.965917 147.46177965 192.46650014 147.4751485 203.9672211 147.47346082 C211.85397519 147.47343106 219.74061728 147.4880604 227.62732773 147.51419553 C232.17738531 147.52884138 236.72721321 147.53704447 241.27729034 147.52783394 C245.44637615 147.51953752 249.61500077 147.52972775 253.78401823 147.55436787 C255.28888666 147.5600443 256.7937989 147.55904717 258.298654 147.5505437 C267.25422758 147.50429103 276.48159392 147.47931451 283.49423063 153.8319571 C288.91885137 159.66925132 290.02894526 165.24225349 289.875 173.07421875 C289.25418548 179.04955852 286.95491519 182.65797026 282.8125 186.89453125 C274.30185494 192.62285004 266.22383173 192.5158403 256.3260498 192.48075867 C254.76821547 192.48620177 253.21038525 192.49295486 251.65256166 192.50090057 C247.38359634 192.51890084 243.1148052 192.51837189 238.84581089 192.5147711 C234.23783631 192.51414674 229.62991991 192.53077213 225.02197266 192.54528809 C217.04230823 192.56807147 209.06268745 192.57995876 201.08299255 192.58441734 C189.54574585 192.59087948 178.00857803 192.61381801 166.47136313 192.64076064 C147.75240423 192.68402797 129.03344864 192.71399504 110.31445312 192.7355957 C92.13214485 192.75660554 73.94986375 192.7838807 55.76757812 192.81958008 C54.0860653 192.82287832 54.0860653 192.82287832 52.37058252 192.82624318 C46.7467366 192.83731284 41.12289093 192.84850565 35.49904537 192.85975969 C-11.14644577 192.95294404 -57.79195212 193.02454237 -104.4375 193.08203125 C-103.56809044 193.94729274 -103.56809044 193.94729274 -102.68111706 194.83003426 C-88.57640597 208.86848288 -74.48001308 222.91523625 -60.39282513 236.97126961 C-53.58015844 243.76846959 -46.76470821 250.56283395 -39.94262695 257.35058594 C-33.99628466 263.26701998 -28.05524044 269.18871438 -22.12048942 275.11677635 C-18.97811156 278.2552444 -15.83315018 281.39102103 -12.68182945 284.52051163 C-9.71475667 287.46719689 -6.75482803 290.42087408 -3.80018616 293.38002205 C-2.7156027 294.46378133 -1.62845272 295.54497928 -0.53853798 296.62337685 C0.95197248 298.09890792 2.43287677 299.58347443 3.91181946 301.07058716 C5.15762268 302.31224231 5.15762268 302.31224231 6.42859364 303.5789814 C10.91695979 308.84378796 12.72072355 314.25581523 12.5625 321.08203125 C11.43888049 328.11062987 7.94236236 333.48920286 2.5625 338.08203125 C-2.68052928 341.26415493 -8.43656152 341.96962753 -14.4375 341.08203125 C-24.85264464 337.94138437 -32.0552451 329.16075186 -39.46240234 321.68823242 C-40.95386554 320.20191318 -42.44639767 318.71666591 -43.93991089 317.23240662 C-47.97588772 313.21488831 -51.99604513 309.18188316 -56.01293516 305.14529204 C-60.22597289 300.91582557 -64.45164522 296.69901405 -68.67544556 292.4803009 C-75.76365498 285.39660694 -82.84162431 278.3028051 -89.91357422 271.20288086 C-98.08331489 263.00107251 -106.26899065 254.81543743 -114.46339452 246.63827533 C-122.3567758 238.7607695 -130.2388011 230.87199481 -138.11571121 222.97802162 C-141.46361464 219.62325576 -144.81542235 216.27246418 -148.17045212 212.92482567 C-152.12116026 208.98179096 -156.06181035 205.02896865 -159.99498367 201.06844521 C-161.43791197 199.61864396 -162.88422908 198.17220622 -164.334198 196.72944641 C-166.31663932 194.75572679 -168.28628942 192.77004542 -170.25326538 190.78092957 C-170.82621696 190.21621875 -171.39916854 189.65150794 -171.98948228 189.06968468 C-176.52854018 184.43623828 -179.86782753 179.4330458 -180.96875 172.95703125 C-180.9584375 172.00828125 -180.948125 171.05953125 -180.9375 170.08203125 C-180.9478125 169.13328125 -180.958125 168.18453125 -180.96875 167.20703125 C-179.70168594 159.75371324 -175.45859369 154.5140682 -170.20184326 149.33843994 C-169.57928658 148.70964329 -168.95672989 148.08084665 -168.31530786 147.43299556 C-166.24139413 145.34321663 -164.15358567 143.2679231 -162.06542969 141.19238281 C-160.56962004 139.69114921 -159.07466184 138.18906683 -157.58049011 136.686203 C-153.52972301 132.61723247 -149.46644327 128.56097835 -145.40022564 124.50745487 C-141.14186125 120.25923342 -136.89328303 116.00124297 -132.64312744 111.74481201 C-125.50478007 104.59919205 -118.35805087 97.4620367 -111.20654297 90.32958984 C-102.94431068 82.08912536 -94.69658695 73.83435001 -86.45625186 65.57199311 C-79.3747238 58.47230015 -72.28541401 51.38044834 -65.18956876 44.29506469 C-60.95424248 40.06596726 -56.72164795 35.83423094 -52.4960556 31.59540558 C-48.52257597 27.61035242 -44.53940223 23.63524771 -40.54860878 19.66753578 C-39.08750969 18.21171564 -37.62978512 16.75249949 -36.17574883 15.28962517 C-34.18665818 13.28956411 -32.18558753 11.30229227 -30.18109131 9.31768799 C-29.61180743 8.73948122 -29.04252355 8.16127446 -28.45598865 7.56554627 C-20.67550866 -0.06640705 -10.78860419 -4.063016 0 0 Z " fill="#000000" transform="translate(201.4375,85.91796875)"/>
</svg>
