<?xml version="1.0" encoding="UTF-8"?>
<svg version="1.1" xmlns="http://www.w3.org/2000/svg" width="512" height="512">
<path d="M0 0 C0.83580534 -0.00581376 1.67161068 -0.01162753 2.53274345 -0.01761746 C5.34015508 -0.03224329 8.14669596 -0.01832019 10.95410156 -0.00457001 C12.98441007 -0.00917789 15.01471525 -0.01553005 17.04501343 -0.02347898 C22.62953845 -0.04021076 28.21379082 -0.03190836 33.79831696 -0.01953411 C39.8188514 -0.01050172 45.83933823 -0.02444435 51.85986328 -0.0354538 C62.97410283 -0.05223318 74.08826718 -0.05074998 85.20250726 -0.03980792 C95.4696496 -0.02974935 105.73676 -0.02711718 116.00390625 -0.0318985 C117.02510539 -0.03235681 117.02510539 -0.03235681 118.06693482 -0.03282438 C120.83045758 -0.03406971 123.59398033 -0.03534331 126.35750306 -0.03666343 C152.28635849 -0.04890198 178.21515843 -0.03780156 204.1440053 -0.01627585 C227.18490045 0.00270687 250.22570718 0.00100837 273.26660156 -0.01811981 C299.1477494 -0.03953406 325.02884819 -0.04803406 350.91000366 -0.03567076 C353.66851806 -0.03438787 356.42703246 -0.03313651 359.18554688 -0.0318985 C359.86477337 -0.03158219 360.54399987 -0.03126588 361.24380898 -0.03093999 C371.50500068 -0.02638832 381.76615696 -0.03171449 392.02734375 -0.04181671 C403.69370525 -0.05324501 415.35998258 -0.05002744 427.02633476 -0.02869374 C432.98146366 -0.01816367 438.93641286 -0.01409491 444.89154053 -0.02729034 C450.33938626 -0.03917939 455.78688514 -0.03270918 461.23469925 -0.01138014 C463.20903809 -0.00689928 465.18340604 -0.00921341 467.15772629 -0.01888329 C469.83538893 -0.03099546 472.51185366 -0.01862507 475.18945312 0 C475.96131392 -0.00936466 476.73317471 -0.01872933 477.52842522 -0.02837777 C482.70018475 0.04383538 485.59745415 1.26546372 489.59472656 4.50336456 C493.2230632 8.32266628 493.90473114 11.38615462 494.09472656 16.50336456 C493.90473114 21.6205745 493.2230632 24.68406284 489.59472656 28.50336456 C484.8563822 32.34155411 481.12308944 33.07871946 475.18945312 33.00672913 C474.35364779 33.01254289 473.51784245 33.01835665 472.65670967 33.02434659 C469.84929805 33.03897242 467.04275716 33.02504932 464.23535156 33.01129913 C462.20504305 33.01590702 460.17473788 33.02225918 458.1444397 33.03020811 C452.55991467 33.04693988 446.97566231 33.03863749 441.39113617 33.02626324 C435.37060172 33.01723085 429.3501149 33.03117348 423.32958984 33.04218292 C412.21535029 33.0589623 401.10118594 33.05747911 389.98694587 33.04653705 C379.71980353 33.03647848 369.45269313 33.03384631 359.18554688 33.03862762 C358.50474745 33.03893316 357.82394802 33.03923871 357.1225183 33.0395535 C354.35899554 33.04079884 351.59547279 33.04207244 348.83195007 33.04339256 C322.90309463 33.05563111 296.9742947 33.04453069 271.04544783 33.02300497 C248.00455267 33.00402226 224.96374594 33.00572075 201.92285156 33.02484894 C176.04170372 33.04626319 150.16060493 33.05476319 124.27944946 33.04239988 C121.52093507 33.041117 118.76242066 33.03986564 116.00390625 33.03862762 C115.32467975 33.03831132 114.64545326 33.03799501 113.94564414 33.03766911 C103.68445244 33.03311745 93.42329617 33.03844362 83.16210938 33.04854584 C71.49574788 33.05997413 59.82947055 33.05675656 48.16311836 33.03542286 C42.20798946 33.02489279 36.25304027 33.02082403 30.2979126 33.03401947 C24.85006686 33.04590851 19.40256799 33.03943831 13.95475388 33.01810926 C11.98041503 33.0136284 10.00604709 33.01594254 8.03172684 33.02561241 C5.35406419 33.03772458 2.67759947 33.02535419 0 33.00672913 C-0.77186079 33.01609379 -1.54372158 33.02545846 -2.33897209 33.0351069 C-7.51073163 32.96289375 -10.40800103 31.7412654 -14.40527344 28.50336456 C-18.03361007 24.68406284 -18.71527802 21.6205745 -18.90527344 16.50336456 C-18.71527802 11.38615462 -18.03361007 8.32266628 -14.40527344 4.50336456 C-9.66692908 0.66517502 -5.93363631 -0.07199033 0 0 Z " fill="#FFFFFF" transform="translate(18.4052734375,415.4966354370117)"/>
<path d="M0 0 C0.83580534 -0.00581376 1.67161068 -0.01162753 2.53274345 -0.01761746 C5.34015508 -0.03224329 8.14669596 -0.01832019 10.95410156 -0.00457001 C12.98441007 -0.00917789 15.01471525 -0.01553005 17.04501343 -0.02347898 C22.62953845 -0.04021076 28.21379082 -0.03190836 33.79831696 -0.01953411 C39.8188514 -0.01050172 45.83933823 -0.02444435 51.85986328 -0.0354538 C62.97410283 -0.05223318 74.08826718 -0.05074998 85.20250726 -0.03980792 C95.4696496 -0.02974935 105.73676 -0.02711718 116.00390625 -0.0318985 C117.02510539 -0.03235681 117.02510539 -0.03235681 118.06693482 -0.03282438 C120.83045758 -0.03406971 123.59398033 -0.03534331 126.35750306 -0.03666343 C152.28635849 -0.04890198 178.21515843 -0.03780156 204.1440053 -0.01627585 C227.18490045 0.00270687 250.22570718 0.00100837 273.26660156 -0.01811981 C299.1477494 -0.03953406 325.02884819 -0.04803406 350.91000366 -0.03567076 C353.66851806 -0.03438787 356.42703246 -0.03313651 359.18554688 -0.0318985 C359.86477337 -0.03158219 360.54399987 -0.03126588 361.24380898 -0.03093999 C371.50500068 -0.02638832 381.76615696 -0.03171449 392.02734375 -0.04181671 C403.69370525 -0.05324501 415.35998258 -0.05002744 427.02633476 -0.02869374 C432.98146366 -0.01816367 438.93641286 -0.01409491 444.89154053 -0.02729034 C450.33938626 -0.03917939 455.78688514 -0.03270918 461.23469925 -0.01138014 C463.20903809 -0.00689928 465.18340604 -0.00921341 467.15772629 -0.01888329 C469.83538893 -0.03099546 472.51185366 -0.01862507 475.18945312 0 C475.96131392 -0.00936466 476.73317471 -0.01872933 477.52842522 -0.02837777 C482.70018475 0.04383538 485.59745415 1.26546372 489.59472656 4.50336456 C493.2230632 8.32266628 493.90473114 11.38615462 494.09472656 16.50336456 C493.90473114 21.6205745 493.2230632 24.68406284 489.59472656 28.50336456 C484.8563822 32.34155411 481.12308944 33.07871946 475.18945312 33.00672913 C474.35364779 33.01254289 473.51784245 33.01835665 472.65670967 33.02434659 C469.84929805 33.03897242 467.04275716 33.02504932 464.23535156 33.01129913 C462.20504305 33.01590702 460.17473788 33.02225918 458.1444397 33.03020811 C452.55991467 33.04693988 446.97566231 33.03863749 441.39113617 33.02626324 C435.37060172 33.01723085 429.3501149 33.03117348 423.32958984 33.04218292 C412.21535029 33.0589623 401.10118594 33.05747911 389.98694587 33.04653705 C379.71980353 33.03647848 369.45269313 33.03384631 359.18554688 33.03862762 C358.50474745 33.03893316 357.82394802 33.03923871 357.1225183 33.0395535 C354.35899554 33.04079884 351.59547279 33.04207244 348.83195007 33.04339256 C322.90309463 33.05563111 296.9742947 33.04453069 271.04544783 33.02300497 C248.00455267 33.00402226 224.96374594 33.00572075 201.92285156 33.02484894 C176.04170372 33.04626319 150.16060493 33.05476319 124.27944946 33.04239988 C121.52093507 33.041117 118.76242066 33.03986564 116.00390625 33.03862762 C115.32467975 33.03831132 114.64545326 33.03799501 113.94564414 33.03766911 C103.68445244 33.03311745 93.42329617 33.03844362 83.16210938 33.04854584 C71.49574788 33.05997413 59.82947055 33.05675656 48.16311836 33.03542286 C42.20798946 33.02489279 36.25304027 33.02082403 30.2979126 33.03401947 C24.85006686 33.04590851 19.40256799 33.03943831 13.95475388 33.01810926 C11.98041503 33.0136284 10.00604709 33.01594254 8.03172684 33.02561241 C5.35406419 33.03772458 2.67759947 33.02535419 0 33.00672913 C-0.77186079 33.01609379 -1.54372158 33.02545846 -2.33897209 33.0351069 C-7.51073163 32.96289375 -10.40800103 31.7412654 -14.40527344 28.50336456 C-18.03361007 24.68406284 -18.71527802 21.6205745 -18.90527344 16.50336456 C-18.71527802 11.38615462 -18.03361007 8.32266628 -14.40527344 4.50336456 C-9.66692908 0.66517502 -5.93363631 -0.07199033 0 0 Z " fill="#FFFFFF" transform="translate(18.4052734375,255.49663543701172)"/>
<path d="M0 0 C0.83580534 -0.00581376 1.67161068 -0.01162753 2.53274345 -0.01761746 C5.34015508 -0.03224329 8.14669596 -0.01832019 10.95410156 -0.00457001 C12.98441007 -0.00917789 15.01471525 -0.01553005 17.04501343 -0.02347898 C22.62953845 -0.04021076 28.21379082 -0.03190836 33.79831696 -0.01953411 C39.8188514 -0.01050172 45.83933823 -0.02444435 51.85986328 -0.0354538 C62.97410283 -0.05223318 74.08826718 -0.05074998 85.20250726 -0.03980792 C95.4696496 -0.02974935 105.73676 -0.02711718 116.00390625 -0.0318985 C117.02510539 -0.03235681 117.02510539 -0.03235681 118.06693482 -0.03282438 C120.83045758 -0.03406971 123.59398033 -0.03534331 126.35750306 -0.03666343 C152.28635849 -0.04890198 178.21515843 -0.03780156 204.1440053 -0.01627585 C227.18490045 0.00270687 250.22570718 0.00100837 273.26660156 -0.01811981 C299.1477494 -0.03953406 325.02884819 -0.04803406 350.91000366 -0.03567076 C353.66851806 -0.03438787 356.42703246 -0.03313651 359.18554688 -0.0318985 C359.86477337 -0.03158219 360.54399987 -0.03126588 361.24380898 -0.03093999 C371.50500068 -0.02638832 381.76615696 -0.03171449 392.02734375 -0.04181671 C403.69370525 -0.05324501 415.35998258 -0.05002744 427.02633476 -0.02869374 C432.98146366 -0.01816367 438.93641286 -0.01409491 444.89154053 -0.02729034 C450.33938626 -0.03917939 455.78688514 -0.03270918 461.23469925 -0.01138014 C463.20903809 -0.00689928 465.18340604 -0.00921341 467.15772629 -0.01888329 C469.83538893 -0.03099546 472.51185366 -0.01862507 475.18945312 0 C475.96131392 -0.00936466 476.73317471 -0.01872933 477.52842522 -0.02837777 C482.70018475 0.04383538 485.59745415 1.26546372 489.59472656 4.50336456 C493.2230632 8.32266628 493.90473114 11.38615462 494.09472656 16.50336456 C493.90473114 21.6205745 493.2230632 24.68406284 489.59472656 28.50336456 C484.8563822 32.34155411 481.12308944 33.07871946 475.18945312 33.00672913 C474.35364779 33.01254289 473.51784245 33.01835665 472.65670967 33.02434659 C469.84929805 33.03897242 467.04275716 33.02504932 464.23535156 33.01129913 C462.20504305 33.01590702 460.17473788 33.02225918 458.1444397 33.03020811 C452.55991467 33.04693988 446.97566231 33.03863749 441.39113617 33.02626324 C435.37060172 33.01723085 429.3501149 33.03117348 423.32958984 33.04218292 C412.21535029 33.0589623 401.10118594 33.05747911 389.98694587 33.04653705 C379.71980353 33.03647848 369.45269313 33.03384631 359.18554688 33.03862762 C358.50474745 33.03893316 357.82394802 33.03923871 357.1225183 33.0395535 C354.35899554 33.04079884 351.59547279 33.04207244 348.83195007 33.04339256 C322.90309463 33.05563111 296.9742947 33.04453069 271.04544783 33.02300497 C248.00455267 33.00402226 224.96374594 33.00572075 201.92285156 33.02484894 C176.04170372 33.04626319 150.16060493 33.05476319 124.27944946 33.04239988 C121.52093507 33.041117 118.76242066 33.03986564 116.00390625 33.03862762 C115.32467975 33.03831132 114.64545326 33.03799501 113.94564414 33.03766911 C103.68445244 33.03311745 93.42329617 33.03844362 83.16210938 33.04854584 C71.49574788 33.05997413 59.82947055 33.05675656 48.16311836 33.03542286 C42.20798946 33.02489279 36.25304027 33.02082403 30.2979126 33.03401947 C24.85006686 33.04590851 19.40256799 33.03943831 13.95475388 33.01810926 C11.98041503 33.0136284 10.00604709 33.01594254 8.03172684 33.02561241 C5.35406419 33.03772458 2.67759947 33.02535419 0 33.00672913 C-0.77186079 33.01609379 -1.54372158 33.02545846 -2.33897209 33.0351069 C-7.51073163 32.96289375 -10.40800103 31.7412654 -14.40527344 28.50336456 C-18.03361007 24.68406284 -18.71527802 21.6205745 -18.90527344 16.50336456 C-18.71527802 11.38615462 -18.03361007 8.32266628 -14.40527344 4.50336456 C-9.66692908 0.66517502 -5.93363631 -0.07199033 0 0 Z " fill="#FFFFFF" transform="translate(18.4052734375,95.49663543701172)"/>
</svg>
